<?xml version="1.0" encoding="UTF-8" standalone="no"?>
<svg
   id="regular"
   enable-background="new 0 0 24 24"
   height="512"
   viewBox="0 0 24 24"
   width="512"
   version="1.1"
   sodipodi:docname="facebook_g2.svg"
   inkscape:version="1.1 (c68e22c387, 2021-05-23)"
   xmlns:inkscape="http://www.inkscape.org/namespaces/inkscape"
   xmlns:sodipodi="http://sodipodi.sourceforge.net/DTD/sodipodi-0.dtd"
   xmlns="http://www.w3.org/2000/svg"
   xmlns:svg="http://www.w3.org/2000/svg">
  <defs
     id="defs7">
    <linearGradient
       id="linearGradient3177"
       inkscape:swatch="gradient">
      <stop
         style="stop-color:#808080;stop-opacity:1;"
         offset="0"
         id="stop3173" />
      <stop
         style="stop-color:#808080;stop-opacity:0;"
         offset="1"
         id="stop3175" />
    </linearGradient>
  </defs>
  <sodipodi:namedview
     id="namedview5"
     pagecolor="#ffffff"
     bordercolor="#666666"
     borderopacity="1.0"
     inkscape:pageshadow="2"
     inkscape:pageopacity="0.0"
     inkscape:pagecheckerboard="0"
     showgrid="false"
     inkscape:zoom="1.625"
     inkscape:cx="134.46154"
     inkscape:cy="256.30769"
     inkscape:window-width="1920"
     inkscape:window-height="1017"
     inkscape:window-x="-8"
     inkscape:window-y="-8"
     inkscape:window-maximized="1"
     inkscape:current-layer="regular" />
  <path
     id="path2"
     d="M 6.812,13.937 H 9.33 v 9.312 c 0,0.414 0.335,0.75 0.75,0.75 L 14.087,24 c 0.415,0 0.75,-0.337 0.75,-0.75 v -9.312 h 2.387 c 0.378,0 0.697,-0.282 0.744,-0.657 l 0.498,-4 C 18.522,8.835 18.173,8.438 17.722,8.438 h -2.885 c 0.113,-2.471 -0.435,-3.202 1.172,-3.202 1.088,-0.13 2.804,0.421 2.804,-0.75 V 0.909 C 18.813,0.534 18.536,0.217 18.165,0.166 17.851,0.123 16.61,0 15.071,0 8.061,0 9.504,7.772 9.331,8.437 H 6.812 c -0.414,0 -0.75,0.336 -0.75,0.75 v 4 c 0,0.414 0.336,0.75 0.75,0.75 z m 0.75,-3.999 h 2.518 c 0.414,0 0.75,-0.336 0.75,-0.75 V 6.037 c 0,-2.883 1.545,-4.536 4.24,-4.536 0.878,0 1.686,0.043 2.242,0.087 V 3.737 C 16.91,3.942 13.336,2.853 13.336,6.434 v 2.755 c 0,0.414 0.336,0.75 0.75,0.75 h 2.786 l -0.312,2.5 h -2.474 c -0.414,0 -0.75,0.336 -0.75,0.75 V 22.5 h -2.505 v -9.312 c 0,-0.414 -0.336,-0.75 -0.75,-0.75 H 7.562 Z"
     style="fill:#3c3c3c;fill-opacity:1;stroke:none;stroke-opacity:1" />
</svg>
