<?xml version="1.0" encoding="UTF-8" standalone="no"?>
<svg
   height="511pt"
   viewBox="0 -10 511.98685 511"
   width="511pt"
   version="1.1"
   id="svg4"
   sodipodi:docname="star.svg"
   inkscape:version="1.1 (c68e22c387, 2021-05-23)"
   xmlns:inkscape="http://www.inkscape.org/namespaces/inkscape"
   xmlns:sodipodi="http://sodipodi.sourceforge.net/DTD/sodipodi-0.dtd"
   xmlns="http://www.w3.org/2000/svg"
   xmlns:svg="http://www.w3.org/2000/svg">
  <defs
     id="defs8" />
  <sodipodi:namedview
     id="namedview6"
     pagecolor="#ffffff"
     bordercolor="#666666"
     borderopacity="1.0"
     inkscape:pageshadow="2"
     inkscape:pageopacity="0.0"
     inkscape:pagecheckerboard="0"
     inkscape:document-units="pt"
     showgrid="false"
     inkscape:zoom="0.61056751"
     inkscape:cx="-26.205128"
     inkscape:cy="307.09135"
     inkscape:window-width="1920"
     inkscape:window-height="1017"
     inkscape:window-x="-8"
     inkscape:window-y="-8"
     inkscape:window-maximized="1"
     inkscape:current-layer="svg4" />
  <path
     d="m 510.82208,193.25062 c -2.9228,-9.04093 -10.94178,-15.46224 -20.42897,-16.31728 L 361.52402,165.2319 310.56571,45.959011 c -3.7574,-8.74116 -12.31461,-14.399409 -21.82224,-14.399409 -9.50763,0 -18.06484,5.658249 -21.82224,14.419849 L 215.96292,165.2319 87.073384,176.93334 c -9.470159,0.87548 -17.468695,7.27635 -20.408532,16.31728 -2.939837,9.04094 -0.224831,18.95735 6.939105,25.20834 l 97.409783,85.429 -28.72388,126.52881 c -2.10183,9.30323 1.50909,18.91987 9.22829,24.49977 4.14916,2.99775 9.00347,4.52387 13.89865,4.52387 4.2207,0 8.40733,-1.13778 12.16473,-3.38609 l 111.16194,-66.43758 111.12106,66.43758 c 8.1314,4.89178 18.38165,4.44553 26.08382,-1.13778 7.7226,-5.59693 11.33012,-15.21698 9.22829,-24.49977 l -28.72387,-126.52881 97.40977,-85.41197 c 7.16394,-6.26802 9.89938,-16.1674 6.95954,-25.22537 z m 0,0"
     fill="#ffc107"
     id="path2"
     style="fill:#236eb4;fill-opacity:1;stroke-width:0.872072" />
  <path
     d="m 144.14999,373.27591 c -0.94609,-2.9265 -3.5418,-5.00505 -6.61276,-5.28182 L 95.82286,364.20638 79.327872,325.59824 c -1.216253,-2.82946 -3.986192,-4.661 -7.063763,-4.661 -3.077583,0 -5.84751,1.83154 -7.063763,4.66763 L 48.70536,364.20638 6.9843618,367.99409 c -3.0654417,0.28337 -5.6545426,2.35532 -6.60614719,5.28182 -0.9516176,2.92652 -0.0728492,6.13643 2.24614849,8.15984 l 31.5311359,27.653 -9.297796,40.95683 c -0.680359,3.01142 0.488482,6.12429 2.987152,7.93047 1.34307,0.97036 2.914392,1.46436 4.498932,1.46436 1.366224,0 2.721426,-0.3683 3.937679,-1.09605 l 35.982643,-21.50557 35.969421,21.50557 c 2.63209,1.58343 5.95006,1.43899 8.44321,-0.36831 2.49976,-1.8117 3.66752,-4.92567 2.98716,-7.93047 l -9.2978,-40.95683 31.53113,-27.64749 c 2.31893,-2.02892 3.20437,-5.23332 2.25276,-8.16535 z m 0,0"
     fill="#ffc107"
     id="path2-6"
     style="fill:#236eb4;fill-opacity:1;stroke-width:0.282286" />
</svg>
