<?xml version="1.0" encoding="UTF-8" standalone="no"?>
<!-- Generator: Adobe Illustrator 18.0.0, SVG Export Plug-In . SVG Version: 6.00 Build 0)  -->

<svg
   version="1.1"
   id="Capa_1"
   x="0px"
   y="0px"
   viewBox="0 0 209.28 209.28"
   style="enable-background:new 0 0 209.28 209.28;"
   xml:space="preserve"
   sodipodi:docname="icon_clock.svg"
   inkscape:version="1.1 (c68e22c387, 2021-05-23)"
   xmlns:inkscape="http://www.inkscape.org/namespaces/inkscape"
   xmlns:sodipodi="http://sodipodi.sourceforge.net/DTD/sodipodi-0.dtd"
   xmlns="http://www.w3.org/2000/svg"
   xmlns:svg="http://www.w3.org/2000/svg"><defs
   id="defs41">
	
	
</defs><sodipodi:namedview
   id="namedview39"
   pagecolor="#ffffff"
   bordercolor="#666666"
   borderopacity="1.0"
   inkscape:pageshadow="2"
   inkscape:pageopacity="0.0"
   inkscape:pagecheckerboard="0"
   showgrid="false"
   inkscape:zoom="2.7334164"
   inkscape:cx="137.92264"
   inkscape:cy="112.49658"
   inkscape:window-width="1920"
   inkscape:window-height="1017"
   inkscape:window-x="-8"
   inkscape:window-y="-8"
   inkscape:window-maximized="1"
   inkscape:current-layer="Capa_1" />
<path
   d="m 105.00678,6.2480048 c -54.454601,0 -98.7568942,44.3013492 -98.7568942,98.7550152 0,54.45743 44.3022932,98.76067 98.7568942,98.76067 54.45367,0 98.75502,-44.30418 98.75502,-98.76067 0,-54.453666 -44.30135,-98.7550152 -98.75502,-98.7550152 z m 0,183.3588852 c -46.648541,0 -84.600094,-37.95343 -84.600094,-84.60387 0,-46.647605 37.951553,-84.598215 84.600094,-84.598215 46.64761,0 84.59822,37.95061 84.59822,84.598215 0,46.65044 -37.95061,84.60387 -84.59822,84.60387 z"
   id="path2"
   style="fill:#236eb4;fill-opacity:1;stroke:#236eb4;stroke-width:11.3255;stroke-miterlimit:4;stroke-dasharray:none;stroke-opacity:1" /><path
   d="M 148.7137,107.50882 H 106.18943 V 57.538101 c 0,-3.850622 -2.90303,-6.972397 -6.485785,-6.972397 -3.581887,0 -6.485789,3.121775 -6.485789,6.972397 v 56.943109 c 0,3.85063 2.903902,6.9724 6.485789,6.9724 H 148.7137 c 3.58275,0 6.48578,-3.12177 6.48578,-6.9724 0,-3.85062 -2.9039,-6.97239 -6.48578,-6.97239 z"
   id="path4"
   style="fill:#236eb4;fill-opacity:1;stroke-width:0.896627" />
<g
   id="g8">
</g>
<g
   id="g10">
</g>
<g
   id="g12">
</g>
<g
   id="g14">
</g>
<g
   id="g16">
</g>
<g
   id="g18">
</g>
<g
   id="g20">
</g>
<g
   id="g22">
</g>
<g
   id="g24">
</g>
<g
   id="g26">
</g>
<g
   id="g28">
</g>
<g
   id="g30">
</g>
<g
   id="g32">
</g>
<g
   id="g34">
</g>
<g
   id="g36">
</g>
</svg>
