<?xml version="1.0" encoding="UTF-8" standalone="no"?>
<svg
   id="regular"
   enable-background="new 0 0 24 24"
   height="512"
   viewBox="0 0 24 24"
   width="512"
   version="1.1"
   sodipodi:docname="vk_g2.svg"
   inkscape:version="1.1 (c68e22c387, 2021-05-23)"
   xmlns:inkscape="http://www.inkscape.org/namespaces/inkscape"
   xmlns:sodipodi="http://sodipodi.sourceforge.net/DTD/sodipodi-0.dtd"
   xmlns="http://www.w3.org/2000/svg"
   xmlns:svg="http://www.w3.org/2000/svg">
  <defs
     id="defs7" />
  <sodipodi:namedview
     id="namedview5"
     pagecolor="#ffffff"
     bordercolor="#666666"
     borderopacity="1.0"
     inkscape:pageshadow="2"
     inkscape:pageopacity="0.0"
     inkscape:pagecheckerboard="0"
     showgrid="false"
     inkscape:zoom="0.8125"
     inkscape:cx="447.38462"
     inkscape:cy="364.92308"
     inkscape:window-width="1920"
     inkscape:window-height="1017"
     inkscape:window-x="-8"
     inkscape:window-y="-8"
     inkscape:window-maximized="1"
     inkscape:current-layer="regular" />
  <path
     d="m 12.354233,21.969914 c 3.531815,0 2.272487,-2.657144 2.545104,-3.421163 -0.0041,-0.570598 -0.0081,-1.119435 0.0081,-1.453089 0.22379,0.07495 0.751731,0.392889 1.842199,1.652556 1.683512,2.01885 2.1138,3.221696 3.473834,3.221696 h 2.503397 c 0.793438,0 1.206433,-0.390471 1.41293,-0.718082 0.199377,-0.316729 0.394684,-0.872819 0.181066,-1.738386 -0.558458,-2.08413 -3.815621,-5.683 -4.01805,-6.062591 0.03052,-0.07011 0.07934,-0.163201 0.104775,-0.211556 h -0.002 c 0.642888,-1.009426 3.096442,-5.37836 3.457558,-7.1264175 0.001,-0.00241 0.002,-0.00604 0.002,-0.00968 0.195345,-0.7978595 0.01631,-1.3152652 -0.168822,-1.607817 -0.278721,-0.4376188 -0.722232,-0.6588461 -1.32138,-0.6588461 h -2.503397 c -0.838196,0 -1.473964,0.5016902 -1.795408,1.4168211 -0.538113,1.6259594 -2.049714,4.9697535 -3.182906,6.1532575 -0.03458,-1.6767315 -0.01119,-2.9569477 0.0071,-3.9083456 0.03662,-1.8556487 0.154619,-3.661733 -1.465825,-3.661733 H 9.4998912 c -1.0151934,0 -1.9866461,1.3176921 -0.9348324,2.8819979 0.919574,1.3708832 0.330599,2.1349027 0.5289585,5.9380757 C 8.3209241,11.671366 6.945632,9.0105949 5.9731621,5.6099826 5.700545,4.690016 5.2875505,3.8377473 4.1248591,3.8377473 H 1.6214612 C 0.60626782,3.8377473 0,4.4953845 0,5.5966847 0,8.0700772 4.6070251,21.969914 12.354233,21.969914 Z M 4.1248591,5.651085 c 0.2207384,0 0.2431174,0 0.4068911,0.5524634 0.9958661,3.4852348 3.2296985,8.6423666 4.8613321,8.6423666 1.2257597,0 1.2257597,-1.492982 1.2257597,-2.055115 l -0.001,-4.4753178 C 10.550688,6.8345898 10.097004,6.0971659 9.7989562,5.649876 l 3.5684358,0.00483 c 0.002,0.020551 -0.02035,4.950412 0.01017,6.144796 0,1.696076 1.133192,2.668025 2.902151,0.540375 1.866613,-2.5036147 3.157475,-6.2463434 3.209354,-6.3986638 0.07629,-0.2176005 0.142412,-0.2913429 0.382478,-0.2913429 h 2.503397 0.01017 c -0.001,0.00363 -0.001,0.00724 -0.002,0.010882 -0.228876,1.2693363 -2.488139,5.3142887 -3.243939,6.5703277 -0.01221,0.01935 -0.0234,0.0399 -0.03459,0.06045 -0.332634,0.645547 -0.603216,1.358794 0.04577,2.362175 h 0.001 c 0.059,0.08461 0.212601,0.28288 0.436391,0.558506 0.695784,0.853478 3.082201,3.771743 3.293784,4.93228 -0.140377,0.0266 -0.292962,0.0073 -2.658016,0.01331 -0.503528,0 -0.897195,-0.89458 -2.399641,-2.695828 -1.350879,-1.561889 -2.227729,-2.200183 -3.026253,-2.200183 -1.550255,0 -1.437343,1.495398 -1.423102,3.3039 0.0051,1.960823 -0.0051,1.34066 0.0061,1.463969 -0.09053,0.04231 -0.349927,0.126932 -1.026383,0.126932 -6.4543113,0 -10.6574969,-12.1747484 -10.8192361,-14.5018649 0.055947,-0.00604 0.825989,-0.00241 2.5898622,-0.00363 z"
     id="path2"
     style="fill:#3c3c3c;fill-opacity:1;stroke-width:1.10892" />
</svg>
